<?xml version="1.0" encoding="UTF-8"?>
<svg id="Layer_1" data-name="Layer 1" xmlns="http://www.w3.org/2000/svg" viewBox="0 0 32 32">
  <defs>
    <style>
      .cls-1 {
        fill: #06402b;
      }

      .cls-2 {
        fill: #c9ff8a;
      }
    </style>
  </defs>
  <g>
    <circle class="cls-2" cx="16" cy="16" r="15"/>
    <path class="cls-1" d="m16,31.5C7.45,31.5.5,24.55.5,16S7.45.5,16,.5s15.5,6.95,15.5,15.5-6.95,15.5-15.5,15.5Zm0-30.01C8,1.5,1.5,8,1.5,16s6.51,14.5,14.5,14.5,14.5-6.51,14.5-14.5S24,1.5,16,1.5Z"/>
  </g>
  <g>
    <path class="cls-1" d="m5.89,16.63c0-.42,0-.84,0-1.26.06-.45.11-.9.2-1.34.75-4.02,4.11-7.31,8.15-7.98.37-.06.75-.1,1.13-.16.42,0,.84,0,1.26,0,.06.01.11.03.17.03.45.07.91.11,1.36.2,6.34,1.37,9.76,8.37,6.96,14.22-2.03,4.24-6.62,6.49-11.25,5.53-3.99-.84-7.14-4.1-7.82-8.14-.06-.37-.1-.74-.15-1.11ZM15.99,7.08c-4.93,0-8.92,4-8.92,8.92,0,4.93,4,8.92,8.92,8.92,4.93,0,8.92-4,8.92-8.92,0-4.93-4-8.92-8.92-8.92Z"/>
    <path class="cls-1" d="m12.77,19.47c-.37.65-.45,1.36-.48,2.09h-1.2c.03-.36.05-.72.1-1.07.09-.64.3-1.23.64-1.79.03-.05.04-.14.02-.19-1.02-1.9-.26-3.84,1.24-5.03.7-.56,1.48-.97,2.27-1.38.63-.32,1.21-.71,1.68-1.25.38-.43.61-.94.78-1.49.03-.1.07-.2.11-.3,1.18.67,2.07,1.6,2.57,2.87.68,1.74.75,3.5.02,5.24-.69,1.63-2.7,3.46-5.36,3.21-.81-.08-1.55-.37-2.24-.81-.05-.03-.1-.06-.16-.1Zm.74-.94c.58.38,1.16.61,1.8.67,1.98.19,3.5-1.18,4.08-2.37.42-.88.52-1.81.43-2.77-.1-1.11-.46-2.13-1.21-2.98-.05-.05-.08-.12-.13-.2-.67,1.11-1.63,1.78-2.7,2.33-.57.29-1.13.62-1.66.97-.63.41-1.12.96-1.38,1.68-.22.59-.21,1.18.02,1.76.3-.2.58-.39.87-.57.86-.54,1.81-.93,2.56-1.65.3.26.59.5.9.77-.18.16-.33.33-.51.45-.61.39-1.24.77-1.86,1.15-.4.24-.79.49-1.22.75Z"/>
  </g>
</svg>