<?xml version="1.0" encoding="UTF-8"?>
<svg id="Layer_1" data-name="Layer 1" xmlns="http://www.w3.org/2000/svg" viewBox="0 0 75 18">
  <defs>
    <style>
      .cls-1 {
        fill: #fff;
      }
    </style>
  </defs>
  <g>
    <path class="cls-1" d="m1.46,7.43h3.44c-.84-.84-1.66-1.66-2.48-2.47.59-.59,1.16-1.16,1.75-1.75,1.08,1.08,2.17,2.18,3.28,3.29V1.5h2.44v5c1.11-1.12,2.2-2.21,3.29-3.3.59.59,1.16,1.16,1.74,1.74-.81.81-1.64,1.63-2.46,2.45,0,.01,0,.02.01.03h3.41v2.43s-.05,0-.07,0c-1.05,0-2.11.02-3.16-.02-1.14-.04-2.11-.49-2.92-1.29-.53-.52-1.28-.61-1.88-.21-.09.06-.16.13-.24.2-.89.86-1.96,1.31-3.2,1.31-.93,0-1.86,0-2.78,0-.06,0-.11,0-.18,0v-2.44Z"/>
    <path class="cls-1" d="m15.89,11.1v2.42H1.46v-2.42h14.44Z"/>
  </g>
  <g>
    <path class="cls-1" d="m30.88,10.48c0,1.69-1.29,2.9-2.99,2.9h-5.31V2.69h4.89c1.58,0,2.79,1.15,2.79,2.69,0,1.02-.53,1.9-1.27,2.31,1.12.34,1.89,1.49,1.89,2.79Zm-6.52-6.13v2.73h2.66c.74,0,1.35-.59,1.35-1.36s-.57-1.36-1.35-1.36h-2.66Zm4.62,5.82c0-.87-.65-1.53-1.52-1.53h-3.1v3.08h3.1c.87,0,1.52-.68,1.52-1.55Z"/>
    <path class="cls-1" d="m32.07,3.04c0-.63.48-1.1,1.1-1.1s1.12.46,1.12,1.1-.48,1.1-1.12,1.1-1.1-.48-1.1-1.1Zm.23,2.43h1.73v7.9h-1.73v-7.9Z"/>
    <path class="cls-1" d="m35.65,9.42c0-2.35,1.81-4.14,4.23-4.14s4.23,1.78,4.23,4.14-1.83,4.14-4.23,4.14-4.23-1.78-4.23-4.14Zm6.66,0c0-1.39-1.04-2.46-2.43-2.46s-2.45,1.07-2.45,2.46,1.05,2.46,2.45,2.46,2.43-1.07,2.43-2.46Z"/>
    <path class="cls-1" d="m53.62,5.47v7.05c0,2.4-1.61,3.98-4.04,3.98-1.95,0-3.38-1.01-3.89-2.63h1.78c.37.63,1.16,1.04,2.11,1.04,1.39,0,2.31-.94,2.31-2.4v-.51c-.63.85-1.61,1.36-2.77,1.36-2.23,0-3.89-1.73-3.89-4.03s1.66-4.04,3.89-4.04c1.16,0,2.14.51,2.77,1.36v-1.18h1.73Zm-1.73,3.86c0-1.41-1.04-2.46-2.43-2.46s-2.45,1.05-2.45,2.46,1.05,2.45,2.45,2.45,2.43-1.05,2.43-2.45Z"/>
    <path class="cls-1" d="m64.46,11.7v1.67h-.5c-1.12,0-1.81-.46-2.03-1.33-.63.93-1.64,1.52-2.85,1.52-2.23,0-3.89-1.78-3.89-4.14s1.66-4.14,3.89-4.14c1.16,0,2.14.54,2.77,1.41v-1.22h1.73v5.5c0,.45.26.73.73.73h.14Zm-2.6-2.28c0-1.39-1.04-2.46-2.43-2.46s-2.45,1.07-2.45,2.46,1.04,2.46,2.45,2.46,2.43-1.07,2.43-2.46Z"/>
    <path class="cls-1" d="m73.54,11.7v1.67h-.65c-1.16,0-2.04-.48-2.79-1.66l-.9-1.21-2.01,2.87h-2.11l2.93-3.96-2.88-3.93h2.12l1.95,2.76,1.95-2.76h2.11l-2.87,3.93,1.16,1.46c.42.54.94.84,1.53.84h.45Z"/>
  </g>
</svg>