<?xml version="1.0" encoding="UTF-8"?>
<svg id="Layer_1" data-name="Layer 1" xmlns="http://www.w3.org/2000/svg" viewBox="0 0 32 32">
  <defs>
    <style>
      .cls-1 {
        fill: #06402b;
      }

      .cls-2 {
        fill: #c9ff8a;
      }
    </style>
  </defs>
  <g>
    <circle class="cls-2" cx="16" cy="16" r="15"/>
    <path class="cls-1" d="m16,31.5C7.45,31.5.5,24.55.5,16S7.45.5,16,.5s15.5,6.95,15.5,15.5-6.95,15.5-15.5,15.5Zm0-30C8,1.5,1.5,8,1.5,16s6.5,14.5,14.5,14.5,14.5-6.5,14.5-14.5S24,1.5,16,1.5Z"/>
  </g>
  <path class="cls-1" d="m25.37,13.94v.26c-.28.55-.71.55-1.07.15-.1-.11-.23-.21-.38-.34,0,.12,0,.19,0,.27,0,3.04,0,6.07,0,9.11,0,.67-.46,1-.99,1-3.85-.01-7.71,0-11.56,0-.76,0-1.51,0-2.27,0-.39,0-.71-.25-.81-.62-.03-.13-.04-.27-.04-.4,0-3.03,0-6.06,0-9.09v-.27c-.26.23-.48.43-.7.63-.25.21-.56.19-.77-.04-.21-.24-.2-.54.03-.77.05-.05.1-.09.15-.14,2.53-2.28,5.07-4.56,7.61-6.84.46-.41.93-.8,1.39-1.2.1,0,.2,0,.29,0,.1.07.22.13.31.22,2.83,2.57,5.67,5.14,8.5,7.71.12.11.2.25.3.38Zm-9.25-7.01s-.06.05-.08.06c-2.2,1.98-4.4,3.95-6.59,5.93-.06.05-.09.17-.09.26,0,3.29,0,6.58,0,9.88v.2h6.18c0-.29,0-.56,0-.83,0-.14-.04-.2-.19-.22-1.75-.3-3.11-1.83-3.24-3.6-.07-.92.16-1.78.55-2.6.68-1.43,1.66-2.63,2.79-3.72.41-.39.86-.4,1.26,0,.35.35.7.7,1.02,1.07.83.96,1.56,2,2.01,3.2.39,1.04.49,2.1.06,3.16-.55,1.37-1.57,2.2-3.01,2.5-.06.01-.15.07-.15.11-.01.31,0,.62,0,.94h6.19v-.17c0-3.3,0-6.61,0-9.91,0-.12-.04-.2-.13-.28-1.93-1.74-3.85-3.49-5.77-5.23-.27-.24-.53-.48-.81-.73Zm-.05,6.24c-.45.53-.9,1.02-1.31,1.54-.61.79-1.13,1.63-1.41,2.6-.42,1.44.1,2.8,1.33,3.5.26.15.54.27.86.31,0-.33,0-.64,0-.95,0-.12-.03-.2-.13-.27-.29-.21-.56-.43-.84-.64-.29-.23-.35-.56-.15-.81.2-.25.52-.28.81-.06.1.07.19.14.32.24,0-.29,0-.54,0-.79.01-.36.27-.6.6-.57.28.03.49.24.49.54,0,.26,0,.53,0,.83.15-.11.26-.19.37-.27.29-.21.62-.18.81.08.19.25.12.59-.16.8-.23.18-.46.37-.71.52-.25.15-.35.33-.32.62.03.24,0,.48,0,.74.83-.18,1.45-.61,1.89-1.29.56-.88.57-1.82.23-2.77-.54-1.52-1.55-2.72-2.69-3.9Z"/>
</svg>