<?xml version="1.0" encoding="UTF-8"?>
<svg id="Layer_1" data-name="Layer 1" xmlns="http://www.w3.org/2000/svg" viewBox="0 0 32 32">
  <defs>
    <style>
      .cls-1 {
        fill: #fff;
      }
    </style>
  </defs>
  <path class="cls-1" d="m2,15.84h6.68c-1.64-1.63-3.23-3.21-4.8-4.78,1.14-1.14,2.25-2.25,3.4-3.4,2.09,2.1,4.21,4.22,6.36,6.38V4.35h4.73v9.7c2.16-2.16,4.28-4.29,6.38-6.4,1.14,1.14,2.24,2.25,3.37,3.38-1.58,1.57-3.17,3.16-4.77,4.76,0,.02.02.04.03.06h6.62v4.72c-.06,0-.1.02-.14.02-2.04,0-4.09.04-6.13-.03-2.2-.07-4.09-.96-5.67-2.5-1.04-1.01-2.48-1.19-3.64-.41-.17.11-.32.25-.46.39-1.73,1.68-3.79,2.54-6.21,2.55-1.8,0-3.6,0-5.4,0-.11,0-.22,0-.35,0v-4.73Z"/>
  <path class="cls-1" d="m30,22.97v4.69H2v-4.69h28Z"/>
</svg>