<?xml version="1.0" encoding="UTF-8"?>
<svg id="Layer_1" data-name="Layer 1" xmlns="http://www.w3.org/2000/svg" viewBox="0 0 32 32">
  <defs>
    <style>
      .cls-1 {
        fill: #06402b;
      }

      .cls-2 {
        fill: #c9ff8a;
      }
    </style>
  </defs>
  <g>
    <circle class="cls-2" cx="16" cy="16" r="15"/>
    <path class="cls-1" d="m16,31.5C7.45,31.5.5,24.55.5,16S7.45.5,16,.5s15.5,6.95,15.5,15.5-6.95,15.5-15.5,15.5Zm0-30C8,1.5,1.5,8,1.5,16s6.5,14.5,14.5,14.5,14.5-6.5,14.5-14.5S24,1.5,16,1.5Z"/>
  </g>
  <path class="cls-1" d="m6.25,21.9c.03-.16.06-.32.1-.48.44-1.75,2.07-2.86,3.88-2.64.07,0,.18-.02.23-.07,2.45-2.45,4.9-4.89,7.35-7.35.05-.05.09-.16.07-.23-.51-2.37,1-4.53,3.4-4.85.03,0,.06-.02.09-.03.25,0,.51,0,.76,0,.1.02.21.04.31.07.42.09.56.54.27.85-.3.32-.62.62-.93.93-.27.27-.55.55-.81.8.71.71,1.41,1.41,2.12,2.12.46-.46.94-.94,1.42-1.42.09-.09.17-.17.25-.26.16-.18.35-.26.58-.18.23.07.31.26.35.48.28,1.74-.66,3.5-2.28,4.23-.81.37-1.66.45-2.53.25-.13-.03-.2,0-.28.09-2.43,2.44-4.87,4.87-7.31,7.31-.08.08-.11.16-.1.28.23,1.89-1.01,3.57-2.88,3.91-1.91.35-3.79-1.04-4.04-2.97,0-.05-.02-.1-.04-.15,0-.23,0-.46,0-.69Zm4.5.35c0-.56-.42-1-.97-1.01-.56,0-1.01.43-1.02.98,0,.55.43,1,.97,1.01.56,0,1.01-.43,1.02-.98Z"/>
</svg>