<?xml version="1.0" encoding="UTF-8"?>
<svg id="Layer_1" data-name="Layer 1" xmlns="http://www.w3.org/2000/svg" viewBox="0 0 32 32">
  <defs>
    <style>
      .cls-1 {
        fill: #06402b;
      }

      .cls-2 {
        fill: #c9ff8a;
      }
    </style>
  </defs>
  <g>
    <circle class="cls-2" cx="16" cy="16" r="15"/>
    <path class="cls-1" d="m16,31.5C7.45,31.5.5,24.55.5,16S7.45.5,16,.5s15.5,6.95,15.5,15.5-6.95,15.5-15.5,15.5Zm0-30C8,1.5,1.5,8,1.5,16s6.5,14.5,14.5,14.5,14.5-6.5,14.5-14.5S24,1.5,16,1.5Z"/>
  </g>
  <g>
    <path class="cls-1" d="m22.29,11.47c-3.1-1.37-6.03.04-7.38,1.95-1.52,2.14-1.51,4.92.03,7.05,1.38,1.9,4.3,3.26,7.39,1.89-.03.26-.05.49-.1.71-.27,1.12-1.27,1.92-2.42,1.93-3.11,0-6.21,0-9.32,0-1.35,0-2.48-1.13-2.48-2.49,0-4.34,0-8.68,0-13.02,0-1.34,1.13-2.48,2.47-2.48,3.12-.01,6.24-.01,9.36,0,1.25,0,2.34.99,2.44,2.25.06.73.01,1.46.01,2.21Zm-8.5-1.7c-.74,0-1.48,0-2.22,0-.47,0-.79.29-.79.7,0,.4.32.68.78.68,1.48,0,2.95,0,4.43,0,.47,0,.8-.29.79-.7,0-.4-.33-.68-.78-.68-.73,0-1.47,0-2.2,0Zm-1.39,2.77c-.3,0-.6,0-.91,0-.4,0-.71.3-.71.68,0,.39.31.7.72.7.6,0,1.19,0,1.79,0,.4,0,.71-.31.72-.68,0-.38-.31-.69-.73-.7-.29,0-.59,0-.88,0Zm-.46,2.77c-.16,0-.32,0-.48,0-.38.01-.68.32-.68.7,0,.36.3.67.67.68.32,0,.65.01.97,0,.37-.01.66-.33.66-.69,0-.37-.29-.67-.67-.68-.16,0-.32,0-.48,0Z"/>
    <path class="cls-1" d="m23.08,20.23c-.44.29-.8.58-1.21.79-2.91,1.51-6.43-.45-6.69-3.71-.23-2.88,2.17-5.25,5.05-4.97,3.17.3,5.08,3.68,3.7,6.54-.08.17-.05.26.07.38.6.59,1.2,1.19,1.79,1.79.23.23.27.52.14.8-.12.26-.39.43-.67.38-.17-.03-.36-.12-.49-.24-.54-.51-1.06-1.04-1.58-1.57-.06-.06-.1-.14-.12-.18Zm-5.13-4.03c-.3.03-.57.21-.67.47-.11.28-.04.59.21.78.42.33.84.65,1.28.96.26.19.55.18.81-.01.83-.61,1.65-1.24,2.47-1.86.21-.16.3-.39.26-.65-.08-.54-.67-.76-1.13-.43-.63.46-1.25.93-1.86,1.41-.11.08-.18.1-.29,0-.2-.17-.42-.33-.64-.48-.13-.09-.28-.14-.42-.2Z"/>
  </g>
</svg>