<?xml version="1.0" encoding="UTF-8"?>
<svg id="Layer_1" data-name="Layer 1" xmlns="http://www.w3.org/2000/svg" viewBox="0 0 32 32">
  <defs>
    <style>
      .cls-1 {
        fill: #06402b;
      }

      .cls-2 {
        fill: #c9ff8a;
      }
    </style>
  </defs>
  <g>
    <circle class="cls-2" cx="16" cy="16" r="15"/>
    <path class="cls-1" d="m16,31.5C7.45,31.5.5,24.55.5,16S7.45.5,16,.5s15.5,6.95,15.5,15.5-6.95,15.5-15.5,15.5Zm0-30C8,1.5,1.5,8,1.5,16s6.5,14.5,14.5,14.5,14.5-6.5,14.5-14.5S24,1.5,16,1.5Z"/>
  </g>
  <path class="cls-1" d="m11.42,28c-.62-.29-.8-.78-.8-1.44.02-5.73,0-11.46.01-17.19,0-2.55,1.75-4.7,4.24-5.25,3.3-.73,6.48,1.79,6.5,5.18.02,4.19,0,8.38,0,12.57,0,2.04,0,4.08,0,6.12h-4.3c0-1.74,0-3.48,0-5.22,0-.73-.42-1.22-1.06-1.23-.65-.01-1.09.48-1.09,1.23,0,1.74,0,3.48,0,5.22h-3.51Zm4.59-20.06c-.58,0-1.07.48-1.08,1.06,0,.58.47,1.08,1.05,1.09.59.02,1.1-.48,1.1-1.07,0-.58-.48-1.07-1.06-1.07Zm-.06,6.44c.58.03,1.09-.43,1.12-1.01.03-.58-.42-1.09-1-1.13-.59-.04-1.12.44-1.14,1.03-.02.58.44,1.09,1.02,1.12Zm1.13,3.23c0-.58-.48-1.07-1.06-1.07-.58,0-1.07.48-1.08,1.06,0,.59.49,1.1,1.08,1.09.58,0,1.06-.49,1.06-1.07Z"/>
</svg>