<?xml version="1.0" encoding="UTF-8"?>
<svg id="Layer_1" data-name="Layer 1" xmlns="http://www.w3.org/2000/svg" viewBox="0 0 32 32">
  <defs>
    <style>
      .cls-1 {
        fill: #06402b;
      }

      .cls-2 {
        fill: #c9ff8a;
      }
    </style>
  </defs>
  <path class="cls-2" d="m16,1c1.32.02,2.48.45,3.43,1.37,1.04,1.02,2.27,1.53,3.73,1.56,2.72.07,4.82,2.15,4.89,4.87.04,1.49.57,2.71,1.59,3.78,1.8,1.88,1.81,4.91,0,6.79-1.03,1.08-1.56,2.31-1.6,3.81-.08,2.71-2.16,4.78-4.88,4.86-1.48.04-2.7.56-3.76,1.57-1.93,1.84-4.93,1.83-6.86-.02-1.04-1-2.25-1.51-3.71-1.55-2.77-.07-4.86-2.18-4.92-4.95-.03-1.42-.54-2.61-1.51-3.63-1.9-1.98-1.9-4.97,0-6.95.98-1.03,1.49-2.22,1.52-3.65.06-2.77,2.17-4.87,4.93-4.94,1.44-.03,2.65-.54,3.68-1.54.96-.93,2.12-1.38,3.45-1.39Zm-2.53,17.6c-.13-.15-.19-.24-.27-.32-.84-.84-1.68-1.69-2.53-2.53-.35-.35-.77-.51-1.26-.41-.51.11-.86.43-1,.94-.15.51-.02.96.35,1.33,1.2,1.2,2.4,2.4,3.59,3.6.75.75,1.46.75,2.22,0,2.84-2.84,5.68-5.68,8.52-8.52.09-.09.19-.19.27-.29.33-.44.39-.92.15-1.42-.25-.49-.67-.74-1.22-.73-.42,0-.73.21-1.02.5-2.51,2.52-5.02,5.03-7.53,7.54-.08.08-.14.18-.26.32Z"/>
  <path class="cls-1" d="m13.47,18.6c.11-.15.18-.24.26-.32,2.51-2.51,5.03-5.03,7.53-7.54.29-.29.6-.49,1.02-.5.56,0,.98.24,1.22.73.25.49.19.98-.15,1.42-.08.11-.18.2-.27.29-2.84,2.84-5.68,5.68-8.52,8.52-.75.75-1.46.76-2.22,0-1.2-1.2-2.4-2.39-3.59-3.6-.37-.37-.5-.82-.35-1.33.15-.51.49-.82,1-.94.49-.11.91.05,1.26.41.84.84,1.68,1.69,2.53,2.53.08.08.15.17.27.32Z"/>
</svg>