<?xml version="1.0" encoding="UTF-8"?>
<svg id="Layer_1" data-name="Layer 1" xmlns="http://www.w3.org/2000/svg" viewBox="0 0 32 32">
  <defs>
    <style>
      .cls-1 {
        fill: #06402b;
      }

      .cls-2 {
        fill: #c9ff8a;
      }
    </style>
  </defs>
  <g>
    <circle class="cls-2" cx="16" cy="16" r="15"/>
    <path class="cls-1" d="m16,31.5C7.45,31.5.5,24.55.5,16S7.45.5,16,.5s15.5,6.95,15.5,15.5-6.95,15.5-15.5,15.5Zm0-30C8,1.5,1.5,8,1.5,16s6.5,14.5,14.5,14.5,14.5-6.5,14.5-14.5S24,1.5,16,1.5Z"/>
  </g>
  <g>
    <path class="cls-1" d="m25.53,15.96c-.02.35-.04.7-.08,1.05-.06.62-.1,1.25-.2,1.87-.17,1.03-.76,1.8-1.57,2.41-.63.47-1.35.69-2.13.74-1.24.07-2.49.14-3.75.21,0,.03.01.08.03.12.26.66.53,1.32.78,1.99.04.12.11.15.22.13.09-.02.18-.02.28-.03.41-.03.75.24.79.64.04.39-.26.74-.67.76-.98.06-1.96.15-2.93.14-1.18,0-2.35-.08-3.53-.14-.41-.02-.7-.36-.67-.75.03-.4.36-.68.78-.66.15,0,.34.06.45,0,.1-.06.13-.26.18-.39.22-.55.43-1.09.65-1.64.02-.06.04-.11.07-.18-.33-.01-.64-.03-.96-.04-1.06-.06-2.12-.11-3.17-.2-1.58-.13-3.11-1.56-3.34-3.14-.26-1.8-.34-3.6-.2-5.42.05-.64.11-1.28.19-1.92.12-.98.64-1.74,1.38-2.37.67-.56,1.44-.85,2.31-.91,2.01-.14,4.02-.26,6.04-.22,1.83.04,3.66.14,5.48.26,1.58.11,3.1,1.57,3.33,3.15.11.81.16,1.63.23,2.44.01.14.02.28.04.42,0,.56,0,1.12,0,1.67Zm-9.53,4.93s0-.06,0-.09c.71,0,1.41.02,2.12,0,1.23-.05,2.46-.12,3.69-.22.93-.07,1.9-.99,2.04-1.91.11-.74.17-1.49.22-2.24.1-1.36.02-2.73-.11-4.09-.04-.44-.06-.88-.28-1.28-.48-.86-1.2-1.37-2.2-1.42-.99-.05-1.98-.11-2.97-.16-2.77-.14-5.53-.03-8.29.2-.95.08-1.92.99-2.07,1.93-.08.53-.13,1.06-.18,1.59-.11,1.29-.11,2.58,0,3.87.05.57.09,1.15.2,1.72.2.97,1.19,1.77,2.26,1.83,1.86.11,3.71.19,5.57.28Zm1.17,3.68c-.3-.77-.59-1.5-.89-2.24-.02-.04-.08-.07-.12-.08-.08-.01-.16,0-.24,0-.14-.02-.19.04-.24.16-.26.66-.52,1.32-.78,1.99-.02.05-.03.1-.05.17h2.32Z"/>
    <path class="cls-1" d="m13.38,18.42c-.24-.01-.46-.13-.59-.38-.13-.24-.12-.49.04-.72.04-.07.1-.12.16-.18,1.67-1.68,3.35-3.35,5.02-5.03.22-.22.46-.34.77-.25.48.14.67.71.36,1.11-.04.05-.08.09-.13.14-1.68,1.68-3.36,3.36-5.04,5.04-.16.16-.34.27-.6.27Z"/>
    <path class="cls-1" d="m17.01,18.69c-.4-.02-.63-.15-.74-.43-.12-.27-.08-.54.13-.76.21-.23.44-.44.65-.66.43-.43.86-.86,1.29-1.29.21-.21.47-.28.75-.18.27.1.43.31.46.6.02.21-.04.41-.2.56-.65.65-1.3,1.31-1.96,1.95-.12.12-.3.16-.38.2Z"/>
    <path class="cls-1" d="m15.8,12.38c-.04.08-.1.28-.22.41-.63.65-1.27,1.29-1.92,1.92-.3.3-.74.29-1.01,0-.28-.29-.27-.71.03-1.01.63-.64,1.27-1.27,1.91-1.91.22-.22.49-.28.79-.16.28.12.42.34.43.75Z"/>
  </g>
</svg>