<?xml version="1.0" encoding="UTF-8"?>
<svg id="Layer_1" data-name="Layer 1" xmlns="http://www.w3.org/2000/svg" viewBox="0 0 32 32">
  <defs>
    <style>
      .cls-1 {
        fill: #06402b;
      }

      .cls-2 {
        fill: #c9ff8a;
      }
    </style>
  </defs>
  <g>
    <path class="cls-2" d="m29.54,22.45c-3.01,6.29-9.82,9.65-16.69,8.21-5.92-1.25-10.6-6.08-11.62-12.08-.09-.53-.15-1.1-.22-1.65v-1.87c.1-.67.16-1.34.3-1.99C2.41,7.11,7.4,2.23,13.39,1.23c.55-.09,1.11-.15,1.68-.22h1.87c.09.01.16.03.25.04.67.1,1.35.16,2.02.3,9.41,2.03,14.48,12.44,10.33,21.1Z"/>
    <path class="cls-2" d="m19.21,1.35c-.67-.13-1.35-.19-2.02-.3-.09-.01-.16-.03-.25-.04h-1.87c-.56.07-1.13.13-1.68.22C7.4,2.23,2.41,7.11,1.3,13.07c-.13.65-.19,1.32-.3,1.99v1.87c.07.55.13,1.11.22,1.65,1.02,6,5.7,10.83,11.62,12.08,6.87,1.44,13.68-1.91,16.69-8.21,4.15-8.67-.92-19.07-10.33-21.1Z"/>
  </g>
  <g>
    <path class="cls-2" d="m19.21,1.35c-.67-.13-1.35-.19-2.02-.3-.09-.01-.16-.03-.25-.04h-1.87c-.56.07-1.13.13-1.68.22C7.4,2.23,2.41,7.11,1.3,13.07c-.13.65-.19,1.32-.3,1.99v1.87c.07.55.13,1.11.22,1.65,1.02,6,5.7,10.83,11.62,12.08,6.87,1.44,13.68-1.91,16.69-8.21,4.15-8.67-.92-19.07-10.33-21.1Zm-3.21,27.88c-7.3.01-13.24-5.92-13.24-13.22-.01-7.32,5.92-13.24,13.22-13.25,7.32,0,13.24,5.92,13.25,13.24,0,7.3-5.92,13.24-13.24,13.24Z"/>
    <path class="cls-1" d="m22.69,9.96c-.74-1.88-2.06-3.26-3.81-4.26-.04.15-.1.3-.15.45-.25.8-.59,1.56-1.17,2.21-.7.79-1.56,1.37-2.49,1.84-1.17.61-2.33,1.22-3.37,2.05-2.21,1.77-3.35,4.66-1.84,7.46.04.07.01.22-.03.3-.5.82-.82,1.69-.95,2.64-.07.52-.1,1.05-.15,1.59h1.77c.04-1.07.16-2.12.71-3.09.09.06.16.1.24.15,1.01.65,2.11,1.08,3.32,1.2,3.95.39,6.93-2.33,7.95-4.76,1.08-2.58.98-5.19-.03-7.78Zm-1.66,7.27c-.86,1.77-3.12,3.8-6.05,3.52-.95-.09-1.81-.43-2.67-.99.64-.39,1.22-.74,1.81-1.11.92-.56,1.84-1.11,2.75-1.71.28-.18.5-.43.77-.67-.47-.4-.91-.77-1.35-1.14-1.11,1.07-2.52,1.65-3.8,2.45-.42.27-.85.55-1.28.85-.36-.88-.37-1.75-.04-2.63.4-1.07,1.13-1.87,2.05-2.48.8-.53,1.63-1.01,2.48-1.45,1.59-.82,3-1.81,3.99-3.46.09.12.13.21.19.3,1.11,1.26,1.65,2.77,1.8,4.42.13,1.41-.01,2.8-.64,4.11Z"/>
  </g>
</svg>