<?xml version="1.0" encoding="UTF-8"?>
<svg id="Layer_1" data-name="Layer 1" xmlns="http://www.w3.org/2000/svg" viewBox="0 0 32 32">
  <defs>
    <style>
      .cls-1 {
        fill: #06402b;
      }

      .cls-2 {
        fill: #c9ff8a;
      }
    </style>
  </defs>
  <path class="cls-2" d="m11.38,1c.47.1.94.17,1.39.29,3.16.87,5.78,3.96,5.45,7.91-.29,3.59-3.07,6.31-6.35,6.81-4.12.63-7.95-2.15-8.63-6.28C2.56,5.52,5.59,1.53,9.84,1.05c.07,0,.13-.03.19-.05.45,0,.9,0,1.35,0Zm-.75,12.71c.67,0,.68,0,.68-.68,0,0,0-.02,0-.03,0-.55,0-.54.52-.74.87-.34,1.43-.96,1.53-1.9.1-.95-.3-1.7-1.1-2.2-.34-.22-.73-.36-1.1-.54-.27-.13-.55-.25-.81-.4-.28-.16-.48-.38-.42-.73.05-.28.32-.48.7-.52.6-.07,1.17.04,1.7.3.23.11.37.06.44-.18.08-.26.16-.52.23-.78.06-.22,0-.39-.23-.46-.34-.11-.69-.23-1.04-.29-.28-.05-.4-.17-.37-.44,0-.07,0-.14,0-.2,0-.47-.05-.51-.53-.52-.89-.01-.77.01-.76.73,0,.31-.08.52-.41.6-.17.04-.33.13-.48.22-1.36.77-1.51,2.59-.25,3.51.45.33,1,.52,1.5.77.26.13.54.24.77.41.52.39.43,1.06-.18,1.29-.24.09-.53.16-.77.11-.53-.1-1.05-.26-1.57-.43-.23-.08-.35-.05-.42.18-.08.27-.16.54-.23.82-.06.22,0,.39.22.47.28.11.57.21.85.3.25.08.6.05.73.21.14.17.09.51.1.78.01.24.13.36.37.35.1,0,.2,0,.29,0Z"/>
  <path class="cls-2" d="m14.02,29.44c0,.26,0,.55,0,.84,0,.47-.25.72-.73.72-1.26,0-2.52,0-3.78,0-.48,0-.72-.24-.73-.72-.03-1.47-.54-2.74-1.54-3.85-1.51-1.67-2.49-3.61-2.8-5.85-.23-1.62.03-3.19.69-4.69.02-.03.04-.06.07-.11.86.64,1.8,1.13,2.83,1.45,4.85,1.51,10.09-1.31,11.41-6.21.45-1.69,1.6-2.45,3.13-2.88.22-.06.46-.09.69-.13.31-.05.58.02.77.3.18.28.12.54-.01.83-.22.49-.47.98-.56,1.49-.08.45.03.94.07,1.42,0,.06.07.13.13.18,1.4,1.17,2.44,2.59,3.06,4.32.03.08.16.16.25.17.25.02.51,0,.76.01.62.03,1.11.52,1.12,1.14.02,1.02.02,2.05,0,3.07,0,.62-.51,1.1-1.13,1.13-.23.01-.47-.01-.7.01-.09,0-.21.09-.24.17-.59,1.73-1.62,3.16-2.99,4.37-.92.81-1.4,1.83-1.36,3.08,0,.22,0,.45-.01.67-.03.36-.28.6-.64.6-1.32,0-2.64,0-3.95,0-.4,0-.64-.27-.65-.67,0-.27,0-.55,0-.82,0-.02-.01-.04-.03-.07h-3.11Zm8.67-12.49c.55,0,.99-.43.99-.97,0-.55-.43-.98-.99-.98-.54,0-.96.42-.97.96,0,.55.42.99.97.99Z"/>
  <path class="cls-1" d="m10.62,13.71c-.1,0-.2,0-.29,0-.24,0-.35-.11-.37-.35-.01-.27.04-.61-.1-.78-.13-.16-.48-.14-.73-.21-.29-.09-.57-.19-.85-.3-.22-.08-.28-.25-.22-.47.08-.27.16-.54.23-.82.06-.23.18-.26.42-.18.51.17,1.04.33,1.57.43.24.05.53-.02.77-.11.61-.23.7-.91.18-1.29-.23-.17-.51-.28-.77-.41-.5-.26-1.05-.44-1.5-.77-1.26-.92-1.11-2.74.25-3.51.15-.09.31-.18.48-.22.33-.08.41-.29.41-.6,0-.71-.13-.74.76-.73.47,0,.52.05.53.52,0,.07,0,.14,0,.2-.03.28.09.39.37.44.35.06.69.18,1.04.29.23.07.3.24.23.46-.08.26-.16.52-.23.78-.07.25-.21.29-.44.18-.54-.26-1.11-.37-1.7-.3-.38.04-.65.24-.7.52-.07.36.14.58.42.73.26.15.54.26.81.4.37.18.76.32,1.1.54.8.5,1.21,1.25,1.1,2.2-.1.94-.66,1.56-1.53,1.9-.52.2-.52.19-.52.74,0,0,0,.02,0,.03,0,.67-.01.69-.68.68Z"/>
  <path class="cls-1" d="m22.69,16.94c-.55,0-.98-.44-.97-.99,0-.54.43-.96.97-.96.55,0,.99.43.99.98,0,.55-.44.98-.99.97Z"/>
</svg>