<?xml version="1.0" encoding="UTF-8"?>
<svg id="Layer_1" data-name="Layer 1" xmlns="http://www.w3.org/2000/svg" viewBox="0 0 32 32">
  <defs>
    <style>
      .cls-1 {
        fill: #06402b;
      }

      .cls-2 {
        fill: #c9ff8a;
      }
    </style>
  </defs>
  <g>
    <circle class="cls-2" cx="16" cy="16" r="15"/>
    <path class="cls-1" d="m16,31.5C7.45,31.5.5,24.55.5,16S7.45.5,16,.5s15.5,6.95,15.5,15.5-6.95,15.5-15.5,15.5Zm0-30C8,1.5,1.5,8,1.5,16s6.5,14.5,14.5,14.5,14.5-6.5,14.5-14.5S24,1.5,16,1.5Z"/>
  </g>
  <g>
    <path class="cls-1" d="m21.95,20.03c.36-.52.63-1.05.83-1.62,1.51-4.19-1.16-8.77-5.56-9.51-1.38-.23-2.71-.08-4,.45-.37.15-.45.12-.63-.24-.13-.27-.27-.54-.4-.8-.15-.3-.1-.43.19-.56,3.24-1.44,7.13-.78,9.72,1.64,1.65,1.54,2.61,3.44,2.84,5.68.23,2.2-.31,4.22-1.56,6.05-.04.06-.08.12-.14.2.3.3.6.6.9.9.05.05.1.1.15.15.09.1.13.21.07.34-.06.13-.16.18-.3.18-.48,0-.96,0-1.44,0-.59,0-1.17,0-1.76,0-.26,0-.37-.11-.37-.36,0-1.06,0-2.12,0-3.19,0-.15.05-.27.2-.33.14-.06.25,0,.35.1.29.3.59.59.9.91Z"/>
    <path class="cls-1" d="m8.75,10.67c-.34-.34-.66-.66-.99-.99-.11-.11-.2-.23-.13-.4.07-.17.21-.19.37-.19,1.04,0,2.07,0,3.11,0,.29,0,.39.1.39.4,0,1.04,0,2.07,0,3.11,0,.16-.03.3-.19.37-.16.07-.27-.01-.38-.12-.29-.29-.58-.58-.88-.89-.32.46-.57.94-.76,1.44-1.49,3.89.57,8.2,4.54,9.46,1.66.53,3.3.45,4.91-.2.07-.03.14-.06.21-.08.16-.05.3,0,.38.15.18.35.36.7.53,1.05.09.2.02.34-.2.44-.73.32-1.49.55-2.27.67-1.81.27-3.56.05-5.2-.76-2.83-1.39-4.55-3.65-5.06-6.77-.39-2.39.17-4.59,1.55-6.57.02-.04.05-.07.08-.13Z"/>
    <path class="cls-1" d="m16.63,14.8c.09,0,.16,0,.23,0,.69,0,1.39,0,2.08,0,.14,0,.28.03.32.17.03.11.02.25-.04.34-1.17,1.87-2.35,3.73-3.52,5.59-.09.14-.2.23-.37.18-.18-.06-.23-.19-.21-.37.08-1.03.16-2.07.24-3.1.01-.13.02-.26.03-.41-.1,0-.19,0-.27,0-.67,0-1.34,0-2.01,0-.15,0-.27-.02-.35-.16-.08-.14-.02-.26.06-.38,1.16-1.84,2.33-3.68,3.49-5.53.14-.22.27-.28.44-.2.14.07.18.2.17.34-.06.7-.11,1.41-.16,2.11-.04.46-.07.92-.11,1.41Z"/>
  </g>
</svg>